<?xml version="1.0" encoding="utf-8"?>
<!-- Generator: Adobe Illustrator 27.5.0, SVG Export Plug-In . SVG Version: 6.00 Build 0)  -->
<svg version="1.1" id="katman_1" xmlns="http://www.w3.org/2000/svg" xmlns:xlink="http://www.w3.org/1999/xlink" x="0px" y="0px"
	 viewBox="0 0 141.73 141.73" style="enable-background:new 0 0 141.73 141.73;" xml:space="preserve">
<style type="text/css">
	.st0{fill-rule:evenodd;clip-rule:evenodd;fill:#2F62AC;}
	.st1{fill:#FFFFFF;}
	.st2{fill:url(#SVGID_1_);}
	.st3{fill-rule:evenodd;clip-rule:evenodd;fill:#FFFFFF;}
	.st4{fill:#2F62AC;}
	.st5{fill:url(#SVGID_00000098179495705736126430000009290166400576708017_);}
	.st6{fill-rule:evenodd;clip-rule:evenodd;}
	.st7{fill-rule:evenodd;clip-rule:evenodd;fill:#B2B2B2;}
</style>
<g>
	<path class="st3" d="M116.29,18.9l-57.03,0c-24.9,0-45.08,20.18-45.08,45.08l0,56.04c0,1.56,1.26,2.82,2.82,2.82l107.75,0
		c1.56,0,2.82-1.26,2.82-2.82l0-89.85C127.56,23.94,122.51,18.9,116.29,18.9z"/>
	<g>
		<path class="st4" d="M59.15,47.05l-8.18,0c-0.49,0-0.9,0.16-1.21,0.47c-0.31,0.31-0.47,0.72-0.47,1.21l0,14.36
			c-1.12-1.16-2.48-2.11-4.09-2.85c-1.61-0.74-3.53-1.11-5.77-1.11c-2.15,0-4.09,0.37-5.84,1.11c-1.74,0.74-3.22,1.79-4.43,3.15
			c-1.21,1.36-2.15,3.02-2.82,4.96c-0.67,1.94-1.05,4.1-1.14,6.47c-0.04,0.9-0.07,1.69-0.07,2.38c0,0.69,0.02,1.49,0.07,2.38
			c0.09,2.51,0.47,4.73,1.14,6.67c0.67,1.95,1.62,3.6,2.85,4.96c1.23,1.36,2.71,2.39,4.43,3.09c1.72,0.69,3.66,1.04,5.8,1.04
			c2.5,0,4.61-0.43,6.31-1.27c1.7-0.85,3.09-1.92,4.16-3.22l0,2.15c0,0.45,0.16,0.84,0.47,1.17c0.31,0.34,0.71,0.5,1.21,0.5h7.58
			c0.45,0,0.84-0.17,1.17-0.5c0.34-0.34,0.5-0.73,0.5-1.17l0-44.28c0-0.49-0.17-0.89-0.5-1.21C59.98,47.21,59.59,47.05,59.15,47.05z
			 M49.28,79.52c-0.04,1.21-0.28,2.33-0.7,3.35c-0.43,1.03-1.07,1.87-1.95,2.52c-0.87,0.65-2.05,0.97-3.52,0.97
			c-1.48,0-2.65-0.31-3.52-0.94c-0.87-0.63-1.5-1.48-1.88-2.55c-0.38-1.07-0.62-2.26-0.7-3.55c-0.13-1.39-0.13-2.77,0-4.16
			c0.09-1.3,0.32-2.48,0.7-3.56c0.38-1.07,1.01-1.92,1.88-2.55c0.87-0.63,2.05-0.94,3.52-0.94c1.39,0,2.53,0.3,3.42,0.9
			c0.89,0.6,1.56,1.39,2.01,2.35c0.45,0.96,0.69,2,0.74,3.12c0.04,0.85,0.07,1.68,0.07,2.48C49.35,77.78,49.33,78.63,49.28,79.52z"
			/>
		<path class="st4" d="M76.24,47.05l-7.96,0c-0.49,0-0.88,0.17-1.19,0.5c-0.31,0.34-0.46,0.73-0.46,1.17l0,6.04
			c0,0.49,0.15,0.9,0.46,1.21c0.31,0.31,0.71,0.47,1.19,0.47l7.96,0c0.44,0,0.83-0.16,1.16-0.47c0.33-0.31,0.5-0.71,0.5-1.21l0-6.04
			c0-0.45-0.17-0.84-0.5-1.17C77.06,47.22,76.68,47.05,76.24,47.05z"/>
		<path class="st4" d="M76.22,59.8l-7.92,0c-0.49,0-0.9,0.16-1.21,0.47c-0.31,0.31-0.47,0.72-0.47,1.21l0,31.53
			c0,0.45,0.16,0.84,0.47,1.17c0.31,0.34,0.71,0.5,1.21,0.5l7.92,0c0.49,0,0.89-0.17,1.21-0.5c0.31-0.34,0.47-0.73,0.47-1.17
			l0-31.53c0-0.49-0.16-0.89-0.47-1.21C77.11,59.95,76.71,59.8,76.22,59.8z"/>
		<path class="st4" d="M115.38,67.21c-0.6-1.63-1.55-3.05-2.85-4.26c-1.3-1.21-2.97-2.15-5.03-2.82c-2.06-0.67-4.52-1.01-7.38-1.01
			c-2.82,0-5.21,0.34-7.18,1.01c-1.97,0.67-3.58,1.52-4.83,2.55c-1.25,1.03-2.18,2.07-2.78,3.12c-0.6,1.05-0.91,1.98-0.91,2.78
			c-0.05,0.4,0.07,0.75,0.34,1.04c0.27,0.29,0.65,0.44,1.14,0.44l7.51,0c0.71,0,1.27-0.29,1.68-0.87c0.45-0.85,1.06-1.52,1.84-2.01
			c0.78-0.49,1.8-0.74,3.05-0.74c1.79,0,3.02,0.43,3.69,1.27c0.67,0.85,1.01,2.08,1.01,3.69v0.94l-8.39,1.27
			c-4.29,0.67-7.74,1.94-10.33,3.79c-2.59,1.86-3.89,4.37-3.89,7.55c0,1.97,0.56,3.73,1.68,5.3c1.12,1.57,2.63,2.81,4.53,3.72
			c1.9,0.92,4.06,1.38,6.47,1.38c1.74,0,3.28-0.21,4.6-0.64c1.32-0.42,2.47-0.99,3.45-1.71c0.98-0.72,1.77-1.5,2.35-2.35V93
			c0,0.45,0.16,0.84,0.47,1.17c0.31,0.34,0.71,0.5,1.21,0.5h7.78c0.45,0,0.84-0.17,1.17-0.5c0.34-0.34,0.5-0.73,0.5-1.17l0-20.39
			C116.29,70.64,115.99,68.84,115.38,67.21z M104.82,79.79c0,1.79-0.3,3.28-0.91,4.46c-0.6,1.19-1.43,2.06-2.48,2.62
			c-1.05,0.56-2.23,0.84-3.52,0.84c-0.85,0-1.64-0.14-2.38-0.44c-0.74-0.29-1.33-0.7-1.78-1.24c-0.45-0.54-0.67-1.18-0.67-1.95
			c0-0.98,0.48-1.84,1.44-2.58c0.96-0.74,2.49-1.29,4.6-1.64l5.7-1.01V79.79z"/>
	</g>
	
		<linearGradient id="SVGID_1_" gradientUnits="userSpaceOnUse" x1="165.3588" y1="-31.1555" x2="278.7446" y2="-31.1555" gradientTransform="matrix(1 0 0 1 -151.1856 151.1838)">
		<stop  offset="0" style="stop-color:#EA5B0C"/>
		<stop  offset="1" style="stop-color:#F39200"/>
	</linearGradient>
	<path class="st2" d="M14.17,117.22l0,2.79c0,1.56,1.26,2.82,2.82,2.82l107.75,0c1.56,0,2.82-1.26,2.82-2.82v-2.79L14.17,117.22z"/>
</g>
</svg>
