<svg xmlns="http://www.w3.org/2000/svg" xmlns:xlink="http://www.w3.org/1999/xlink" width="500" zoomAndPan="magnify" viewBox="0 0 375 74.999997" height="100" preserveAspectRatio="xMidYMid meet" version="1.0"><defs><g/><clipPath id="3c0f1b40b0"><path d="M 357.566406 38.546875 L 366.5 38.546875 L 366.5 59.8125 L 357.566406 59.8125 Z M 357.566406 38.546875 " clip-rule="nonzero"/></clipPath><clipPath id="2d0505545b"><path d="M 0.566406 0.546875 L 9.5 0.546875 L 9.5 21.8125 L 0.566406 21.8125 Z M 0.566406 0.546875 " clip-rule="nonzero"/></clipPath><clipPath id="5725d8914a"><rect x="0" width="10" y="0" height="22"/></clipPath><clipPath id="9c99a5d943"><rect x="0" width="53" y="0" height="75"/></clipPath><clipPath id="34e0bbbe41"><path d="M 348.636719 25.46875 L 357.566406 25.46875 L 357.566406 59.8125 L 348.636719 59.8125 Z M 348.636719 25.46875 " clip-rule="nonzero"/></clipPath><clipPath id="e7d5cbbd17"><path d="M 0.636719 0.46875 L 9.566406 0.46875 L 9.566406 34.8125 L 0.636719 34.8125 Z M 0.636719 0.46875 " clip-rule="nonzero"/></clipPath><clipPath id="d77f24a20e"><rect x="0" width="10" y="0" height="35"/></clipPath><clipPath id="b1e488f933"><path d="M 0.679688 0 L 304 0 L 304 75 L 0.679688 75 Z M 0.679688 0 " clip-rule="nonzero"/></clipPath><clipPath id="b2f6861c5a"><rect x="0" width="304" y="0" height="75"/></clipPath><clipPath id="ab727997c5"><rect x="0" width="367" y="0" height="75"/></clipPath></defs><g transform="matrix(1, 0, 0, 1, 1, -0.000000000000001893)"><g clip-path="url(#ab727997c5)"><g clip-path="url(#3c0f1b40b0)"><g transform="matrix(1, 0, 0, 1, 357, 38)"><g clip-path="url(#5725d8914a)"><g clip-path="url(#2d0505545b)"><path fill="#f4b135" d="M 0.566406 0.546875 L 9.5 0.546875 L 9.5 21.828125 L 0.566406 21.828125 Z M 0.566406 0.546875 " fill-opacity="1" fill-rule="nonzero"/></g></g></g></g><g transform="matrix(1, 0, 0, 1, 298, -0.000000000000001893)"><g clip-path="url(#9c99a5d943)"><g fill="#50bb9f" fill-opacity="1"><g transform="translate(0.956682, 58.945182)"><g><path d="M 4.046875 0 L 4.046875 -45.328125 L 19.921875 -45.328125 C 25.421875 -45.328125 29.59375 -44.273438 32.4375 -42.171875 C 35.28125 -40.066406 36.703125 -36.976562 36.703125 -32.90625 C 36.703125 -30.6875 36.128906 -28.726562 34.984375 -27.03125 C 33.847656 -25.34375 32.265625 -24.109375 30.234375 -23.328125 C 32.554688 -22.742188 34.382812 -21.566406 35.71875 -19.796875 C 37.0625 -18.035156 37.734375 -15.878906 37.734375 -13.328125 C 37.734375 -8.960938 36.34375 -5.660156 33.5625 -3.421875 C 30.78125 -1.179688 26.816406 -0.0390625 21.671875 0 Z M 13.390625 -19.734375 L 13.390625 -7.5 L 21.390625 -7.5 C 23.585938 -7.5 25.300781 -8.019531 26.53125 -9.0625 C 27.769531 -10.113281 28.390625 -11.566406 28.390625 -13.421875 C 28.390625 -17.566406 26.242188 -19.671875 21.953125 -19.734375 Z M 13.390625 -26.34375 L 20.296875 -26.34375 C 25.015625 -26.425781 27.375 -28.300781 27.375 -31.96875 C 27.375 -34.03125 26.773438 -35.507812 25.578125 -36.40625 C 24.378906 -37.3125 22.492188 -37.765625 19.921875 -37.765625 L 13.390625 -37.765625 Z M 13.390625 -26.34375 "/></g></g></g><g fill="#50bb9f" fill-opacity="1"><g transform="translate(36.61493, 58.945182)"><g><path d="M 13.984375 0 L 4.640625 0 L 4.640625 -45.328125 L 13.984375 -45.328125 Z M 13.984375 0 "/></g></g></g></g></g><g clip-path="url(#34e0bbbe41)"><g transform="matrix(1, 0, 0, 1, 348, 25)"><g clip-path="url(#d77f24a20e)"><g clip-path="url(#e7d5cbbd17)"><path fill="#ed553b" d="M 0.636719 0.46875 L 9.566406 0.46875 L 9.566406 34.800781 L 0.636719 34.800781 Z M 0.636719 0.46875 " fill-opacity="1" fill-rule="nonzero"/></g></g></g></g><g clip-path="url(#b1e488f933)"><g transform="matrix(1, 0, 0, 1, -0.000000000000000222, -0.000000000000001893)"><g clip-path="url(#b2f6861c5a)"><g fill="#d9d9d9" fill-opacity="1"><g transform="translate(0.852021, 60.270583)"><g><path d="M 38.03125 0 L 27.75 -14.453125 C 26.59375 -14.328125 25.394531 -14.265625 24.15625 -14.265625 L 12.078125 -14.265625 L 12.078125 0 L 7.328125 0 L 7.328125 -44.96875 L 24.15625 -44.96875 C 29.894531 -44.96875 34.390625 -43.597656 37.640625 -40.859375 C 40.898438 -38.117188 42.53125 -34.351562 42.53125 -29.5625 C 42.53125 -26.039062 41.640625 -23.070312 39.859375 -20.65625 C 38.085938 -18.238281 35.550781 -16.492188 32.25 -15.421875 L 43.234375 0 Z M 24.03125 -18.3125 C 28.488281 -18.3125 31.894531 -19.296875 34.25 -21.265625 C 36.601562 -23.234375 37.78125 -26 37.78125 -29.5625 C 37.78125 -33.195312 36.601562 -35.988281 34.25 -37.9375 C 31.894531 -39.882812 28.488281 -40.859375 24.03125 -40.859375 L 12.078125 -40.859375 L 12.078125 -18.3125 Z M 24.03125 -18.3125 "/></g></g></g><g fill="#d9d9d9" fill-opacity="1"><g transform="translate(47.299077, 60.270583)"><g><path d="M 20.171875 0.328125 C 16.921875 0.328125 13.988281 -0.410156 11.375 -1.890625 C 8.757812 -3.367188 6.703125 -5.414062 5.203125 -8.03125 C 3.703125 -10.644531 2.953125 -13.597656 2.953125 -16.890625 C 2.953125 -20.191406 3.703125 -23.148438 5.203125 -25.765625 C 6.703125 -28.378906 8.757812 -30.410156 11.375 -31.859375 C 13.988281 -33.316406 16.921875 -34.046875 20.171875 -34.046875 C 23.429688 -34.046875 26.363281 -33.316406 28.96875 -31.859375 C 31.582031 -30.410156 33.628906 -28.378906 35.109375 -25.765625 C 36.585938 -23.148438 37.328125 -20.191406 37.328125 -16.890625 C 37.328125 -13.597656 36.585938 -10.644531 35.109375 -8.03125 C 33.628906 -5.414062 31.582031 -3.367188 28.96875 -1.890625 C 26.363281 -0.410156 23.429688 0.328125 20.171875 0.328125 Z M 20.171875 -3.71875 C 22.566406 -3.71875 24.71875 -4.265625 26.625 -5.359375 C 28.53125 -6.453125 30.019531 -8.003906 31.09375 -10.015625 C 32.164062 -12.035156 32.703125 -14.328125 32.703125 -16.890625 C 32.703125 -19.460938 32.164062 -21.753906 31.09375 -23.765625 C 30.019531 -25.785156 28.53125 -27.335938 26.625 -28.421875 C 24.71875 -29.515625 22.566406 -30.0625 20.171875 -30.0625 C 17.773438 -30.0625 15.625 -29.515625 13.71875 -28.421875 C 11.8125 -27.335938 10.3125 -25.785156 9.21875 -23.765625 C 8.125 -21.753906 7.578125 -19.460938 7.578125 -16.890625 C 7.578125 -14.328125 8.125 -12.035156 9.21875 -10.015625 C 10.3125 -8.003906 11.8125 -6.453125 13.71875 -5.359375 C 15.625 -4.265625 17.773438 -3.71875 20.171875 -3.71875 Z M 20.171875 -3.71875 "/></g></g></g><g fill="#d9d9d9" fill-opacity="1"><g transform="translate(87.578889, 60.270583)"><g><path d="M 24.15625 -2.0625 C 23.300781 -1.289062 22.238281 -0.695312 20.96875 -0.28125 C 19.707031 0.125 18.394531 0.328125 17.03125 0.328125 C 13.851562 0.328125 11.40625 -0.523438 9.6875 -2.234375 C 7.976562 -3.953125 7.125 -6.378906 7.125 -9.515625 L 7.125 -29.9375 L 1.09375 -29.9375 L 1.09375 -33.796875 L 7.125 -33.796875 L 7.125 -41.1875 L 11.6875 -41.1875 L 11.6875 -33.796875 L 21.96875 -33.796875 L 21.96875 -29.9375 L 11.6875 -29.9375 L 11.6875 -9.765625 C 11.6875 -7.753906 12.191406 -6.222656 13.203125 -5.171875 C 14.210938 -4.117188 15.660156 -3.59375 17.546875 -3.59375 C 18.484375 -3.59375 19.390625 -3.742188 20.265625 -4.046875 C 21.148438 -4.347656 21.910156 -4.773438 22.546875 -5.328125 Z M 24.15625 -2.0625 "/></g></g></g><g fill="#d9d9d9" fill-opacity="1"><g transform="translate(113.661186, 60.270583)"><g><path d="M 18.1875 -34.046875 C 22.59375 -34.046875 25.972656 -32.941406 28.328125 -30.734375 C 30.691406 -28.535156 31.875 -25.273438 31.875 -20.953125 L 31.875 0 L 27.5 0 L 27.5 -5.265625 C 26.46875 -3.515625 24.957031 -2.144531 22.96875 -1.15625 C 20.976562 -0.164062 18.613281 0.328125 15.875 0.328125 C 12.101562 0.328125 9.101562 -0.570312 6.875 -2.375 C 4.644531 -4.175781 3.53125 -6.554688 3.53125 -9.515625 C 3.53125 -12.378906 4.566406 -14.6875 6.640625 -16.4375 C 8.722656 -18.195312 12.035156 -19.078125 16.578125 -19.078125 L 27.3125 -19.078125 L 27.3125 -21.140625 C 27.3125 -24.046875 26.492188 -26.257812 24.859375 -27.78125 C 23.234375 -29.300781 20.859375 -30.0625 17.734375 -30.0625 C 15.585938 -30.0625 13.53125 -29.707031 11.5625 -29 C 9.59375 -28.300781 7.898438 -27.328125 6.484375 -26.078125 L 4.4375 -29.484375 C 6.144531 -30.941406 8.195312 -32.066406 10.59375 -32.859375 C 13 -33.648438 15.53125 -34.046875 18.1875 -34.046875 Z M 16.578125 -3.28125 C 19.148438 -3.28125 21.351562 -3.867188 23.1875 -5.046875 C 25.03125 -6.222656 26.40625 -7.925781 27.3125 -10.15625 L 27.3125 -15.671875 L 16.703125 -15.671875 C 10.921875 -15.671875 8.03125 -13.660156 8.03125 -9.640625 C 8.03125 -7.671875 8.78125 -6.117188 10.28125 -4.984375 C 11.78125 -3.847656 13.878906 -3.28125 16.578125 -3.28125 Z M 16.578125 -3.28125 "/></g></g></g><g fill="#d9d9d9" fill-opacity="1"><g transform="translate(151.564038, 60.270583)"><g><path d="M 23.578125 -34.046875 C 27.816406 -34.046875 31.1875 -32.8125 33.6875 -30.34375 C 36.195312 -27.882812 37.453125 -24.300781 37.453125 -19.59375 L 37.453125 0 L 32.890625 0 L 32.890625 -19.140625 C 32.890625 -22.660156 32.007812 -25.335938 30.25 -27.171875 C 28.5 -29.015625 26 -29.9375 22.75 -29.9375 C 19.101562 -29.9375 16.21875 -28.851562 14.09375 -26.6875 C 11.976562 -24.53125 10.921875 -21.546875 10.921875 -17.734375 L 10.921875 0 L 6.359375 0 L 6.359375 -33.796875 L 10.734375 -33.796875 L 10.734375 -27.5625 C 11.972656 -29.613281 13.691406 -31.207031 15.890625 -32.34375 C 18.097656 -33.476562 20.660156 -34.046875 23.578125 -34.046875 Z M 23.578125 -34.046875 "/></g></g></g><g fill="#d9d9d9" fill-opacity="1"><g transform="translate(195.184449, 60.270583)"><g><path d="M 20.171875 0.328125 C 16.921875 0.328125 13.988281 -0.410156 11.375 -1.890625 C 8.757812 -3.367188 6.703125 -5.414062 5.203125 -8.03125 C 3.703125 -10.644531 2.953125 -13.597656 2.953125 -16.890625 C 2.953125 -20.191406 3.703125 -23.148438 5.203125 -25.765625 C 6.703125 -28.378906 8.757812 -30.410156 11.375 -31.859375 C 13.988281 -33.316406 16.921875 -34.046875 20.171875 -34.046875 C 23.429688 -34.046875 26.363281 -33.316406 28.96875 -31.859375 C 31.582031 -30.410156 33.628906 -28.378906 35.109375 -25.765625 C 36.585938 -23.148438 37.328125 -20.191406 37.328125 -16.890625 C 37.328125 -13.597656 36.585938 -10.644531 35.109375 -8.03125 C 33.628906 -5.414062 31.582031 -3.367188 28.96875 -1.890625 C 26.363281 -0.410156 23.429688 0.328125 20.171875 0.328125 Z M 20.171875 -3.71875 C 22.566406 -3.71875 24.71875 -4.265625 26.625 -5.359375 C 28.53125 -6.453125 30.019531 -8.003906 31.09375 -10.015625 C 32.164062 -12.035156 32.703125 -14.328125 32.703125 -16.890625 C 32.703125 -19.460938 32.164062 -21.753906 31.09375 -23.765625 C 30.019531 -25.785156 28.53125 -27.335938 26.625 -28.421875 C 24.71875 -29.515625 22.566406 -30.0625 20.171875 -30.0625 C 17.773438 -30.0625 15.625 -29.515625 13.71875 -28.421875 C 11.8125 -27.335938 10.3125 -25.785156 9.21875 -23.765625 C 8.125 -21.753906 7.578125 -19.460938 7.578125 -16.890625 C 7.578125 -14.328125 8.125 -12.035156 9.21875 -10.015625 C 10.3125 -8.003906 11.8125 -6.453125 13.71875 -5.359375 C 15.625 -4.265625 17.773438 -3.71875 20.171875 -3.71875 Z M 20.171875 -3.71875 "/></g></g></g><g fill="#d9d9d9" fill-opacity="1"><g transform="translate(235.464261, 60.270583)"><g><path d="M 48.515625 -34.046875 C 52.753906 -34.046875 56.082031 -32.828125 58.5 -30.390625 C 60.914062 -27.953125 62.125 -24.351562 62.125 -19.59375 L 62.125 0 L 57.5625 0 L 57.5625 -19.140625 C 57.5625 -22.660156 56.71875 -25.335938 55.03125 -27.171875 C 53.34375 -29.015625 50.953125 -29.9375 47.859375 -29.9375 C 44.347656 -29.9375 41.585938 -28.851562 39.578125 -26.6875 C 37.566406 -24.53125 36.5625 -21.546875 36.5625 -17.734375 L 36.5625 0 L 32 0 L 32 -19.140625 C 32 -22.660156 31.148438 -25.335938 29.453125 -27.171875 C 27.765625 -29.015625 25.359375 -29.9375 22.234375 -29.9375 C 18.765625 -29.9375 16.007812 -28.851562 13.96875 -26.6875 C 11.9375 -24.53125 10.921875 -21.546875 10.921875 -17.734375 L 10.921875 0 L 6.359375 0 L 6.359375 -33.796875 L 10.734375 -33.796875 L 10.734375 -27.625 C 11.929688 -29.6875 13.597656 -31.269531 15.734375 -32.375 C 17.878906 -33.488281 20.34375 -34.046875 23.125 -34.046875 C 25.957031 -34.046875 28.410156 -33.445312 30.484375 -32.25 C 32.566406 -31.050781 34.117188 -29.273438 35.140625 -26.921875 C 36.390625 -29.148438 38.179688 -30.894531 40.515625 -32.15625 C 42.847656 -33.414062 45.515625 -34.046875 48.515625 -34.046875 Z M 48.515625 -34.046875 "/></g></g></g></g></g></g></g></g></svg>