<?xml version="1.0" encoding="UTF-8"?><svg id="Layer_2" xmlns="http://www.w3.org/2000/svg" viewBox="0 0 1133.86 317.48"><defs><style>.cls-1{fill:#fff;}.cls-2{fill:#f2b134;}.cls-3{fill:#4fb99f;}.cls-4{fill:#ed553b;}.cls-5{fill:#112f41;}.cls-6{fill:#068587;}</style></defs><g id="Layer_1-2"><g><rect class="cls-3" y="92.47" width="39.67" height="39.67"/><rect class="cls-2" y="135.18" width="39.67" height="39.67"/><rect class="cls-4" y="177.9" width="39.67" height="39.67"/><g><path class="cls-1" d="m440.8,4.86c32.92,3.47,65.85,6.91,98.75,10.65,13.05,1.48,25.64,4.94,36.71,12.4,14.27,9.61,20.65,23.45,19.04,40.29-3.66,38.34-7.74,76.65-12.05,114.93-3.15,28.02-22.17,40.9-48.79,41.78-18.13.6-36.41-1.96-54.55-3.77-36.54-3.63-73.03-7.73-109.54-11.6-13.13-1.39-25.64-4.77-36.87-11.9-15.47-9.81-21.61-24.52-20.04-42.17,2.66-29.98,6.06-59.89,9.17-89.83.83-7.98,1.45-16,2.7-23.92C329.3,16.44,345.16,1.93,370.66.02c3.79-.28,50.6,2.78,70.15,4.84Zm-49.64,26.15c-18.98-.41-26.1,5.39-26.98,21.39-.52,9.4-1.91,18.76-2.9,28.14-2.61,24.74-5.29,49.47-7.78,74.23-1.37,13.64,3.98,20.64,17.47,23.3,3.34.66,6.74,1.03,10.13,1.39,36.69,3.9,73.38,7.83,110.08,11.6,11.36,1.17,22.76,2.57,34.14,2.55,11.61-.01,17.46-5.69,18.62-16.4,3.98-36.7,7.78-73.42,11.64-110.13.77-7.3-1.75-13.1-8.4-16.43-3.7-1.85-7.73-3.63-11.78-4.12-23.69-2.85-47.42-5.34-71.15-7.87-25.12-2.68-50.26-5.25-73.11-7.64Z"/><path class="cls-1" d="m286.69,85.09c2.01-11.5,1.81-23.63.82-35.32-1.51-17.72-11.53-29.82-28.11-36.52-12.15-4.92-24.85-6.18-37.76-6.19-57.42-.04-178.51-.01-178.51-.01v210.53h39.67v-93.74h111.03l49.55,93.78h42.16c-2.53-4.81-33.53-63.67-49.28-93.78,4.52-.78,8.27-1.75,11.97-2.51,20.26-4.19,34.81-15.25,38.46-36.24Zm-52.24,5.82c-3.68.87-7.52,1.49-11.29,1.51-45.16.11-140.34,0-140.34,0v-54.46s93.99.16,137.75.34c5.31.02,10.75.96,15.93,2.29,7.23,1.86,11.06,7.23,11.52,14.51.43,6.79.52,13.65,0,20.44-.66,8.64-5.05,13.37-13.57,15.38Z"/><polygon class="cls-1" points="765.54 217.62 725.55 217.62 725.55 37.95 615.42 37.95 615.42 7.04 875.68 7.04 875.68 37.95 765.54 37.95 765.54 217.62"/><rect class="cls-5" y="7.04" width="39.67" height="39.67"/><rect class="cls-6" y="49.75" width="39.67" height="39.67"/><polygon class="cls-1" points="994.07 7.04 964.64 7.04 824.85 217.61 869.52 217.61 979.35 48.29 1089.18 217.61 1133.86 217.61 994.07 7.04"/></g><path class="cls-4" d="m776.63,225.71l-16.78,44.83h-.07l-15.61-44.83h-18.62l25.11,62.51-12.71,29.27h17.45l39.88-91.77h-18.64Zm80.45,7.55c-6.36-6.56-14.12-9.85-23.26-9.85s-17.52,3.58-24.17,10.72c-6.65,7.15-9.97,15.8-9.97,25.95s3.32,18.78,9.97,25.89c6.65,7.11,14.68,10.66,24.11,10.66,9.1-.04,16.88-3.3,23.32-9.79v7.49h15.16v-68.63h-15.16v7.55Zm-6.19,42.23c-3.89,4.15-8.71,6.22-14.47,6.22s-10.51-2.07-14.38-6.22c-3.87-4.15-5.8-9.28-5.8-15.41s1.93-11.33,5.8-15.5c3.87-4.17,8.68-6.25,14.44-6.25s10.57,2.08,14.44,6.22c3.87,4.15,5.8,9.3,5.8,15.47s-1.94,11.32-5.83,15.47Zm79.96-34.92v-14.86h-46.94v15.1h27.78l-31.17,38.67v14.86h52.2v-15.1h-33.23l31.35-38.67Zm10.69-14.86v68.63h16.49v-68.63h-16.49Zm29.85-22.9v91.53h16.49v-91.53h-16.49Zm29.6,22.9v68.63h16.49v-68.63h-16.49Zm125.45,5.62c-4.94-5.28-11.62-7.91-20.05-7.91s-15.45,2.9-20.81,8.7l-1.33,1.45-1.21-1.45c-5.07-5.8-11.4-8.7-19-8.7-6.88-.04-12.83,2.62-17.86,7.98v-5.68h-15.35v68.63h16.49v-36.13c0-6.61,1.1-11.56,3.32-14.86,2.21-3.3,5.53-4.95,9.95-4.95s7.78,1.61,10.07,4.83c2.29,3.22,3.44,7.94,3.44,14.14v36.98h16.49v-36.13c0-6.61,1.13-11.56,3.39-14.86,2.26-3.3,5.67-4.95,10.23-4.95,4.28,0,7.54,1.45,9.78,4.35,2.24,2.9,3.36,7.15,3.36,12.75v38.85h16.49v-41.57c0-9.02-2.47-16.17-7.41-21.45Z"/></g></g></svg>